# xmcd
#
# Track frame offsets: 
#        150
#        12815
#        23845
#        36379
#        53532
#        68202
#        76896
#        99806
#        108640
#        126889
#        142753
#
# Disc length: 3853 seconds
#
# Revision: 1
# Processed by: cddbd v1.5.2PL0 Copyright (c) Steve Scherf et al.
# Submitted via: ExactAudioCopyFreeDBPlugin 1.0
#
DISCID=810f0b0b
DTITLE=Деревянное колесо - Кольцо всевластия
DYEAR=2002
DGENRE=Instrumental
TTITLE0=Туманный Лондон
TTITLE1=Танец Миледи Кэрри
TTITLE2=Вальс ''Детские сказки''
TTITLE3=Воспоминания о Херсонесе
TTITLE4=Ночная фанера над Парижем (сюита си-минор)
TTITLE5=Увертюра
TTITLE6=Шри-Ланка
TTITLE7=Временно принятый на работу г-н Маэда
TTITLE8=Декодер PAL-SEСAM
TTITLE9=Из записок придворной дамы японского императора Го Фу Хокуси
TTITLE10=Властелин колец
EXTD=Ñåðãåé Ãîïïåí - óäàðíûå, ãîëîñ, òåêñò 1-10\nÂëàäèìèð Êàëàøíèêîâ -
EXTD=êîíòðàáàñ, ãèòàðà, ñêðèïêà, ïåðêóññèÿ 1-10\nÊîíñòàíòèí Òàðàáðèí 
EXTD=ãèòàðà, ôëåéòà, áëîê-ôëåéòà  1-11\nÀëåêñàíäð Ëó÷êîâ - ñêðèïêà, 
EXTD=ãèòàðà, ìàíäîëèíà  1-10\nÐîìàí Õàëäååâ - ãèòàðà  11\nÐóäîëüô Ìèõà
EXTD=éëîâ - ñêðèïêà  11\nÀííà Ñòàíþêîâè÷ - âîêàë, áëîê-ôëåéòà 11\nÎëüã
EXTD=à Àëåêñàíäðîâà - êîëäîâñêîé ãîëîñ 11\n\n2002, Solyd Records      
EXTD=                              SLR 0113 101\n
EXTT0=
EXTT1=
EXTT2=
EXTT3=
EXTT4=
EXTT5=
EXTT6=
EXTT7=
EXTT8=
EXTT9=
EXTT10=
PLAYORDER=
